<svg width="80" height="71" viewBox="0 0 80 71" fill="none" xmlns="http://www.w3.org/2000/svg">
<path d="M6.40927 30.8352C6.82565 31.0018 7.30853 31.0018 7.72491 30.802L20.7309 24.8901C21.5635 24.4905 21.9132 23.4913 21.5135 22.6587C21.1306 21.8594 20.1814 21.4929 19.3653 21.8594L10.2561 26.0059C14.6025 12.9999 26.7093 4.3071 40.6478 4.3071C55.2525 4.3071 68.0252 14.0658 71.7055 28.0375C71.9386 28.9201 72.8545 29.4531 73.7371 29.2199C74.6196 28.9868 75.1526 28.0708 74.9194 27.1882C70.856 11.7677 56.7676 0.976562 40.6476 0.976562C25.277 0.976562 11.9046 10.5687 7.07529 24.9235L3.24516 15.3482C2.96211 14.4822 2.01289 13.9993 1.14689 14.2823C0.280885 14.5654 -0.201999 15.5146 0.0810493 16.3806C0.0977543 16.4473 0.131008 16.5138 0.164262 16.5804L5.4766 29.9027C5.64318 30.3191 5.97619 30.6688 6.40927 30.8352Z" fill="#F48A1F"/>
<path d="M79.8987 55.415C79.882 55.3817 79.8654 55.3483 79.8654 55.3151L74.5531 41.9928C74.3865 41.5764 74.0535 41.2267 73.6206 41.0603C73.2042 40.8937 72.7213 40.9104 72.3049 41.0935L59.2989 47.0054C58.4496 47.3551 58.05 48.3375 58.3997 49.1868C58.7494 50.0361 59.7319 50.4358 60.5812 50.0861C60.6144 50.0694 60.6478 50.0528 60.6811 50.0361L69.7903 45.8896C65.4106 58.8956 53.2872 67.5884 39.3654 67.5884C24.7607 67.5884 11.9879 57.8297 8.30767 43.8579C8.07458 42.9754 7.15862 42.4424 6.27607 42.6756C5.39351 42.9087 4.86051 43.8247 5.09376 44.7072C9.14042 60.1445 23.2455 70.9189 39.3655 70.9189C54.7361 70.9189 68.0918 61.3268 72.9379 46.9719L76.768 56.5473C77.0844 57.4133 78.0336 57.863 78.8995 57.5465C79.7653 57.2302 80.215 56.281 79.8987 55.415Z" fill="#F48A1F"/>
</svg>
