<svg width="80" height="74" viewBox="0 0 80 74" fill="none" xmlns="http://www.w3.org/2000/svg">
<path d="M19.1489 40.1236C17.1855 40.1236 15.5881 41.6061 15.5881 43.4285C15.5881 45.2509 17.1855 46.7335 19.1489 46.7335C21.1122 46.7335 22.7094 45.2509 22.7094 43.4285C22.7094 41.6061 21.112 40.1236 19.1489 40.1236ZM19.1489 44.554C18.4805 44.554 17.9366 44.0491 17.9366 43.4288C17.9366 42.8085 18.4805 42.3036 19.1489 42.3036C19.8174 42.3036 20.3611 42.8085 20.3611 43.4288C20.3611 44.0491 19.8172 44.554 19.1489 44.554Z" fill="#F48A1F"/>
<path d="M51.3633 61.141C51.2063 60.6916 50.7554 60.3877 50.2468 60.3877H43.2721L41.1168 54.2305C40.9615 53.7865 40.5029 53.4773 40 53.4773C39.4972 53.4773 39.0388 53.7864 38.8833 54.2305L36.728 60.3877H29.7535C29.2449 60.3877 28.794 60.6917 28.6368 61.1409C28.4796 61.5899 28.6518 62.082 29.0633 62.3593L34.7058 66.1648L32.5505 72.3221C32.4001 72.7515 32.5582 73.2352 32.9404 73.5147C33.3486 73.8133 33.9368 73.8242 34.3574 73.5405L39.9999 69.735L45.6424 73.5405C46.0836 73.8381 46.7039 73.8096 47.1118 73.4738C47.4575 73.1891 47.5921 72.7302 47.4491 72.3222L45.2938 66.165L50.9363 62.3595C51.3483 62.0822 51.5205 61.5901 51.3633 61.141ZM43.2238 64.8666C42.8122 65.144 42.64 65.636 42.7972 66.085L44.0994 69.8052L40.69 67.5061C40.2832 67.2316 39.7166 67.2316 39.3099 67.5061L35.9005 69.8052L37.2027 66.085C37.3599 65.636 37.1877 65.1439 36.7761 64.8666L33.3669 62.5675H37.581C38.0896 62.5675 38.5405 62.2635 38.6977 61.8143L39.9999 58.0941L41.3021 61.8143C41.4593 62.2635 41.9102 62.5675 42.4188 62.5675H46.6329L43.2238 64.8666Z" fill="#F48A1F"/>
<path d="M79.9426 61.1407C79.7854 60.6916 79.3344 60.3876 78.8259 60.3876H71.8513L69.696 54.2303C69.5407 53.7864 69.0821 53.4771 68.5793 53.4771C68.0765 53.4771 67.618 53.7862 67.4626 54.2303L65.3073 60.3876H58.3327C57.8241 60.3876 57.3732 60.6916 57.216 61.1407C57.0588 61.5898 57.231 62.0819 57.6426 62.3592L63.2851 66.1647L61.1297 72.3219C60.9793 72.7514 61.1374 73.2351 61.5196 73.5146C61.9279 73.8132 62.516 73.8241 62.9366 73.5404L68.5791 69.7349L74.2216 73.5404C74.663 73.838 75.2832 73.8094 75.6912 73.4736C76.0369 73.1889 76.1715 72.73 76.0285 72.3221L73.8732 66.1648L79.5157 62.3593C79.9277 62.0819 80.0999 61.5898 79.9426 61.1407ZM71.803 64.8666C71.3915 65.144 71.2193 65.636 71.3765 66.085L72.6785 69.8052L69.2694 67.5061C68.8577 67.2285 68.3005 67.2284 67.8891 67.5061L64.4798 69.8052L65.7819 66.085C65.9391 65.636 65.7669 65.1439 65.3554 64.8666L61.9462 62.5675H66.1604C66.669 62.5675 67.1199 62.2635 67.2771 61.8143L68.5793 58.0941L69.8815 61.8143C70.0387 62.2635 70.4896 62.5675 70.9982 62.5675H75.2123L71.803 64.8666Z" fill="#F48A1F"/>
<path d="M22.7843 61.141C22.6269 60.6916 22.176 60.3877 21.6674 60.3877H14.6929L12.5375 54.2305C12.3804 53.7813 11.9294 53.4773 11.4208 53.4773C10.9122 53.4773 10.4613 53.7813 10.3041 54.2305L8.1488 60.3877H1.17427C0.665673 60.3877 0.214735 60.6917 0.0575477 61.1409C-0.0996398 61.5899 0.0725476 62.082 0.48411 62.3593L6.12661 66.1648L3.9713 72.3221C3.81411 72.7711 3.9863 73.2632 4.39786 73.5405C4.80927 73.8181 5.36661 73.8181 5.77817 73.5405L11.4207 69.735L17.0632 73.5405C17.5046 73.8381 18.1247 73.8096 18.5325 73.4738C18.8783 73.1891 19.0129 72.7302 18.8699 72.3222L16.7146 66.165L22.3571 62.3595C22.7693 62.0822 22.9415 61.5901 22.7843 61.141ZM14.6446 64.8666C14.233 65.144 14.0608 65.636 14.218 66.085L15.5202 69.8052L12.1108 67.5061C11.704 67.2316 11.1374 67.2316 10.7305 67.5061L7.32145 69.8051L8.62348 66.0849C8.78067 65.6359 8.60849 65.1438 8.19692 64.8664L4.7877 62.5673H9.00177C9.51036 62.5673 9.9613 62.2633 10.1185 61.8141L11.4207 58.094L12.7229 61.8141C12.88 62.2633 13.331 62.5673 13.8396 62.5673H18.0536L14.6446 64.8666Z" fill="#F48A1F"/>
<path d="M70.4951 27.1712C71.7079 26.2653 72.4852 24.8763 72.4852 23.3222C72.4852 20.5988 70.0983 18.3832 67.1646 18.3832H48.2777C48.8647 17.1951 49.5424 15.3852 49.9297 12.8692C50.8294 7.02296 49.4699 3.91975 48.171 2.34596C47.0716 1.01394 45.5946 0.208406 43.8999 0.0166671C42.4699 -0.146354 41.1641 0.907918 41.126 2.24139C40.9061 4.33775 40.1019 10.0889 38.9501 12.2276C35.9908 17.7213 28.9355 20.9967 26.7565 21.9029C25.994 21.2946 25.0036 20.9257 23.9218 20.9257H14.3758C11.974 20.9257 10.0199 22.7394 10.0199 24.9691V47.1207C10.0199 49.3503 11.974 51.164 14.3758 51.164H23.9215C25.2066 51.164 26.3633 50.6443 27.1611 49.82C28.4004 50.5462 30.4004 51.3552 33.1624 51.3552H63.8472C66.7811 51.3552 69.1679 49.1396 69.1679 46.4164C69.1679 45.1681 68.6663 44.0263 67.8404 43.1558C69.6072 42.3516 70.8263 40.6644 70.8263 38.7181C70.8263 37.4698 70.3247 36.3282 69.4988 35.4576C71.2657 34.6535 72.4847 32.9663 72.4847 31.02C72.4852 29.4661 71.7077 28.0771 70.4951 27.1712ZM23.9215 48.9841H14.3758C13.2688 48.9841 12.3682 48.1481 12.3682 47.1205V24.9689C12.3682 23.9413 13.2688 23.1054 14.3758 23.1054H23.9215C24.4821 23.1054 24.9891 23.3203 25.3536 23.6655V47.9707C25.3536 48.1011 25.3791 48.229 25.4272 48.3491C25.059 48.7374 24.5213 48.9841 23.9215 48.9841ZM62.2313 28.261H67.1651C68.8041 28.261 70.1374 29.4989 70.1374 31.02C70.1374 32.5412 68.804 33.779 67.1651 33.779H62.2313C61.5829 33.779 61.0571 34.2669 61.0571 34.869C61.0571 35.471 61.5829 35.9589 62.2313 35.9589H65.5063C67.1454 35.9589 68.4786 37.1968 68.4786 38.718C68.4786 40.2391 67.1452 41.477 65.5063 41.477H61.3311C60.6827 41.477 60.1569 41.9649 60.1569 42.567C60.1569 43.169 60.6827 43.6569 61.3311 43.6569H63.8475C65.4865 43.6569 66.8199 44.8948 66.8199 46.4161C66.8199 47.9374 65.4865 49.1751 63.8475 49.1751H33.1627C30.7393 49.1751 29.0963 48.4215 28.2043 47.8557C28.2518 47.617 28.2779 47.3714 28.2779 47.1202V24.9689C28.2779 24.5428 28.206 24.1322 28.0738 23.7464C30.8251 22.5744 37.8686 19.109 41.0504 13.2024C42.6418 10.2481 43.4352 2.72508 43.4682 2.40629C43.4716 2.37177 43.4735 2.33682 43.4735 2.30216C43.4735 2.26503 43.4888 2.23341 43.519 2.20875C43.5611 2.17438 43.6018 2.17873 43.6154 2.18033C44.3504 2.26358 45.414 2.58991 46.3069 3.67159C47.3321 4.91369 48.3894 7.46416 47.605 12.561C46.9402 16.8812 45.3638 18.7712 45.354 18.783C44.7385 19.4812 45.2927 20.5632 46.2626 20.5632H67.1649C68.804 20.5632 70.1372 21.801 70.1372 23.3223C70.1372 24.8438 68.8038 26.0814 67.1649 26.0814H62.2311C61.5827 26.0814 61.0569 26.5693 61.0569 27.1713C61.0569 27.7734 61.5827 28.261 62.2313 28.261Z" fill="#F48A1F"/>
</svg>
