<svg width="20" height="20" viewBox="0 0 20 20" fill="none" xmlns="http://www.w3.org/2000/svg">
<path fill-rule="evenodd" clip-rule="evenodd" d="M9 2.17569C5.13401 2.17569 2 5.13645 2 8.78873C2 12.441 5.13401 15.4018 9 15.4018C12.866 15.4018 16 12.441 16 8.78873C16 5.13645 12.866 2.17569 9 2.17569ZM0 8.78873C0 4.09294 4.02944 0.286255 9 0.286255C13.9706 0.286255 18 4.09294 18 8.78873C18 13.4845 13.9706 17.2912 9 17.2912C4.02944 17.2912 0 13.4845 0 8.78873Z" fill="white"/>
<path fill-rule="evenodd" clip-rule="evenodd" d="M13.9429 13.4583C14.3334 13.0894 14.9666 13.0894 15.3571 13.4583L19.7071 17.5679C20.0976 17.9368 20.0976 18.535 19.7071 18.9039C19.3166 19.2729 18.6834 19.2729 18.2929 18.9039L13.9429 14.7944C13.5524 14.4254 13.5524 13.8273 13.9429 13.4583Z" fill="white"/>
</svg>
