<svg width="80" height="80" viewBox="0 0 80 80" fill="none" xmlns="http://www.w3.org/2000/svg">
<path d="M42.8116 0.0227868C44.1789 0.22787 45.5461 0.364592 46.8905 0.615248C54.5697 1.98247 61.3602 5.26379 67.3076 10.2769C69.1078 11.8037 70.7485 13.5355 72.5031 15.2217C72.5031 14.8115 72.5031 14.3786 72.5031 13.9456C72.5259 13.0114 72.9588 12.5328 73.7792 12.51C74.5995 12.51 75.078 12.9886 75.078 13.9228C75.1236 15.723 75.1236 17.5232 75.1236 19.3006C75.1236 20.1665 74.6451 20.6906 73.7792 20.7134C71.7739 20.7589 69.7686 20.7361 67.7634 20.7134C66.9431 20.6906 66.5101 20.1893 66.5101 19.4145C66.5101 18.617 66.9886 18.1612 67.8773 18.1612C68.9711 18.1384 70.0421 18.1612 71.3409 18.1612C70.589 17.2725 69.9965 16.5206 69.3357 15.8142C62.6591 8.61347 54.4786 4.03329 44.7257 2.91673C32.2841 1.48115 21.7337 5.56002 13.1658 14.6976C12.5505 15.3584 11.9809 16.0876 11.4112 16.794C10.7732 17.546 10.1123 17.6599 9.45152 17.1358C8.81348 16.6117 8.76791 15.9737 9.36037 15.2217C14.6014 8.54511 21.2552 3.91936 29.4129 1.61787C32.0334 0.888692 34.7678 0.615248 37.4567 0.136722C37.639 0.113935 37.7985 0.0455739 37.9808 0C39.5987 0.022787 41.2166 0.0227868 42.8116 0.0227868Z" fill="#F48A1F"/>
<path d="M80 41.8825C79.7721 43.4548 79.6126 45.0271 79.2708 46.5766C77.3111 55.8965 72.4575 63.4617 65.2568 69.5914C61.8616 72.4854 58.0789 74.7413 53.7722 76.4959C54.5242 76.8377 55.1394 77.1111 55.7547 77.4074C56.6661 77.8403 56.9396 78.4328 56.6206 79.2075C56.3015 79.9595 55.6179 80.1646 54.7292 79.7772C53.1569 79.0936 51.5846 78.3872 50.0351 77.6808C48.9869 77.2023 48.7591 76.4503 49.3515 75.4933C50.2858 74.0121 51.22 72.5537 52.1771 71.0954C52.7012 70.2978 53.3392 70.1383 54.0228 70.5485C54.7292 71.0042 54.8432 71.665 54.3419 72.5082C54.114 72.8955 53.8633 73.2601 53.5671 73.7159C53.8178 73.6475 53.9773 73.6247 54.114 73.5792C66.0088 67.9052 73.9159 58.9499 76.7415 45.9158C78.1087 39.6493 77.3795 33.4513 75.3059 27.39C75.1919 27.0709 75.078 26.7519 74.9869 26.4329C74.7362 25.6581 75.0097 25.0429 75.6933 24.7695C76.4224 24.4732 77.0833 24.7695 77.3795 25.5442C78.5188 28.5065 79.2936 31.5828 79.6582 34.7501C79.7721 35.6161 79.8633 36.482 79.9772 37.3707C80 38.8518 80 40.3785 80 41.8825Z" fill="#F48A1F"/>
<path d="M18.8397 44.5485C17.6548 44.5485 16.242 44.5485 14.852 44.5485C13.5987 44.5485 13.1658 44.1156 13.1658 42.8395C13.1658 40.9482 13.1658 39.0341 13.1658 37.1428C13.1658 35.8439 13.576 35.4337 14.8976 35.411C16.1053 35.3882 17.2902 35.4338 18.4979 35.3882C18.7486 35.3882 19.136 35.1831 19.1816 35.0008C19.7512 32.5398 20.7311 30.2839 22.1439 28.0508C21.1412 27.0709 20.1386 26.1367 19.1588 25.1568C18.1561 24.177 18.1561 23.6301 19.1132 22.6503C20.4121 21.3286 21.7109 20.0298 23.0098 18.7081C24.0124 17.7055 24.5821 17.7055 25.5619 18.6853C26.5417 19.6424 27.5216 20.6222 28.5242 21.6021C30.6434 20.2576 32.8765 19.2778 35.3147 18.6853C35.497 18.6397 35.7021 18.2524 35.7249 18.0017C35.7705 16.7256 35.7477 15.4496 35.7477 14.1735C35.7477 13.0569 36.1806 12.624 37.32 12.624C39.3025 12.624 41.2849 12.624 43.2446 12.624C44.3384 12.624 44.8169 13.0797 44.8169 14.1963C44.8169 15.4724 44.7941 16.7484 44.8397 18.0245C44.8397 18.2524 45.0676 18.6397 45.2499 18.6853C47.6197 19.255 49.8073 20.2348 51.9037 21.5109C51.9492 21.5337 51.9948 21.5337 52.0859 21.5337C53.0658 20.5539 54.0684 19.574 55.071 18.5942C55.9597 17.7055 56.575 17.7055 57.4637 18.5942C58.8309 19.9614 60.1753 21.3286 61.5425 22.6958C62.3629 23.5162 62.3857 24.1542 61.5653 24.9745C60.6766 25.886 59.7879 26.7975 58.8765 27.6862C58.5802 27.9824 58.5574 28.1875 58.7625 28.5521C59.9702 30.489 60.8361 32.5626 61.3375 34.7957C61.4514 35.3198 61.7021 35.3882 62.135 35.3882C63.3655 35.3654 64.5732 35.3654 65.8037 35.3882C66.9658 35.411 67.3988 35.8439 67.3988 37.006C67.4216 38.9657 67.4216 40.9026 67.3988 42.8623C67.3988 44.0928 66.9658 44.503 65.7581 44.5257C64.3453 44.5257 62.9553 44.5257 61.7248 44.5257C60.6994 47.0323 59.6968 49.4477 58.6258 52.0682C59.4461 52.8658 60.4488 53.8228 61.4514 54.8255C62.3857 55.7597 62.3629 56.3294 61.4514 57.2637C60.107 58.6081 58.7853 59.9753 57.4409 61.3197C56.575 62.1857 55.9142 62.1629 55.0483 61.297C54.0456 60.3171 53.0658 59.3373 52.1999 58.4714C49.7617 59.4968 47.3918 60.4994 44.8397 61.5704C44.8397 62.6414 44.8397 63.9858 44.8397 65.3303C44.8397 66.9481 44.4979 67.2899 42.88 67.2899C41.0571 67.2899 39.2341 67.2899 37.4111 67.2899C36.2034 67.2899 35.7705 66.857 35.7705 65.6265C35.7705 64.3732 35.7933 63.1199 35.7477 61.8894C35.7477 61.6615 35.5426 61.297 35.3375 61.2286C34.1754 60.7956 32.9677 60.4766 31.8055 59.9981C30.689 59.5424 29.618 58.9271 28.5014 58.3574C27.5216 59.3373 26.4962 60.3399 25.4935 61.3425C24.6504 62.1857 24.0124 62.1857 23.1693 61.3425C21.7793 59.9525 20.4121 58.5853 19.0448 57.1953C18.2245 56.375 18.2245 55.7597 19.0676 54.9166C20.093 53.914 21.1184 52.9341 21.9844 52.1138C20.8678 49.4933 19.8879 47.0779 18.8397 44.5485ZM21.5286 23.9719C22.4857 24.9062 23.4199 25.8176 24.3542 26.7291C25.2429 27.595 25.2885 28.028 24.6049 29.0306C23.0781 31.3093 22.0299 33.7703 21.5286 36.4819C21.3007 37.7352 20.9589 37.9859 19.6829 37.9859C18.384 37.9859 17.1079 37.9859 15.7863 37.9859C15.7863 39.3531 15.7863 40.6292 15.7863 41.9736C17.1307 41.9736 18.4296 41.9736 19.7057 41.9736C20.9362 41.9736 21.278 42.2471 21.5058 43.4548C22.0071 46.1892 23.0326 48.673 24.6049 50.9745C25.2429 51.9087 25.1973 52.3873 24.3998 53.162C23.4427 54.1191 22.4629 55.0533 21.5058 55.9876C22.5085 56.9674 23.4199 57.8561 24.377 58.7676C25.2657 57.8789 26.2227 56.9219 27.1798 55.9876C27.9773 55.1901 28.4331 55.1445 29.3673 55.7825C31.6688 57.3776 34.1982 58.4258 36.9326 58.9271C37.958 59.1094 38.277 59.5196 38.277 60.5906C38.277 61.935 38.277 63.2794 38.277 64.6694C39.6215 64.6694 40.8748 64.6694 42.1964 64.6694C42.1964 63.2794 42.1964 61.9122 42.1964 60.5678C42.1964 59.5196 42.5382 59.1094 43.5864 58.9271C46.2981 58.4258 48.7591 57.4232 51.015 55.8509C52.1087 55.0989 52.4961 55.1445 53.4532 56.0787C54.3646 56.9902 55.2989 57.8789 56.142 58.6992C57.0763 57.7878 57.965 56.8991 58.9676 55.8965C58.0789 55.0533 57.1674 54.1646 56.256 53.2759C55.2761 52.3189 55.2305 51.9315 56.0053 50.7922C57.5092 48.5818 58.4891 46.1664 58.9904 43.5687C59.2638 42.1787 59.5145 41.9508 60.9045 41.9508C62.1806 41.9508 63.4339 41.9508 64.7327 41.9508C64.7327 40.5836 64.7327 39.2847 64.7327 37.9631C63.3655 37.9631 62.0211 37.9631 60.6994 37.9631C59.6056 37.9631 59.1955 37.6441 59.0132 36.5503C58.5119 33.7931 57.4865 31.2637 55.8914 28.9622C55.2533 28.028 55.2989 27.5722 56.0965 26.7747C57.0535 25.8404 58.0561 24.9062 59.0132 24.0175C57.965 22.9693 57.0535 22.0806 56.142 21.1919C55.2761 22.0578 54.3646 22.9465 53.476 23.8352C52.5189 24.7922 52.1087 24.8378 50.9922 24.063C48.8502 22.5819 46.4804 21.5793 43.9282 21.1007C42.4471 20.8273 42.1964 20.5311 42.1964 19.0271C42.1964 17.7966 42.1964 16.5433 42.1964 15.3128C40.8292 15.3128 39.5759 15.3128 38.277 15.3128C38.277 16.6801 38.277 17.9789 38.277 19.2778C38.277 20.4855 38.0036 20.8273 36.8642 21.0324C34.107 21.5337 31.6005 22.6047 29.299 24.1998C28.4331 24.7922 27.909 24.7239 27.157 23.9947C26.1999 23.0376 25.2201 22.1034 24.3086 21.1691C23.4427 22.0806 22.554 22.9693 21.5286 23.9719Z" fill="#F48A1F"/>
<path d="M3.91428 27.0253C3.1851 27.3899 2.59264 27.6862 2.00018 27.9824C1.17985 28.3698 0.519024 28.1647 0.154433 27.4355C-0.187372 26.7291 0.040498 26.1139 0.815255 25.7037C2.38756 24.8834 3.95986 24.0858 5.53216 23.3111C6.48921 22.8325 7.15003 23.0832 7.60577 24.063C8.33496 25.7037 9.06414 27.3444 9.79332 28.985C10.2035 29.8965 9.99841 30.5573 9.22365 30.8763C8.44889 31.2181 7.85643 30.9447 7.44626 30.0332C7.12725 29.3268 6.80823 28.6204 6.39806 27.6862C5.82839 29.3724 5.32708 30.8763 4.84855 32.3575C2.36477 39.9228 3.50412 47.2602 6.58036 54.3241C11.0238 64.5783 18.703 71.4371 29.299 74.9691C33.1955 76.268 37.2516 76.8149 41.3533 76.7237C41.7179 76.7237 42.1053 76.6782 42.4471 76.7693C43.1079 76.9744 43.3585 77.5213 43.2674 78.1821C43.1535 78.9113 42.6977 79.2303 41.9685 79.2531C38.6188 79.367 35.2919 79.2075 32.0562 78.3644C16.2648 74.3539 6.21577 64.4416 2.00018 48.7185C0.131646 41.7002 0.815255 34.8641 3.5269 28.1647C3.66363 27.8229 3.75477 27.4811 3.91428 27.0253Z" fill="#F48A1F"/>
<path d="M51.1289 40.0139C51.1061 46.0297 46.2525 50.9061 40.2823 50.9061C34.3349 50.9061 29.4357 45.9613 29.4357 39.9684C29.4357 33.9298 34.3121 29.0306 40.3507 29.0534C46.3208 29.0762 51.1289 33.9754 51.1289 40.0139ZM40.2823 48.3084C44.8397 48.3084 48.554 44.5941 48.5768 40.0139C48.5995 35.4338 44.8169 31.6055 40.2823 31.6511C35.7249 31.6739 32.0562 35.411 32.0562 40.0139C32.0334 44.5713 35.7249 48.3084 40.2823 48.3084Z" fill="#F48A1F"/>
</svg>
