<svg width="80" height="81" viewBox="0 0 80 81" fill="none" xmlns="http://www.w3.org/2000/svg">
<path d="M73.89 44.9753C73.8743 44.9753 73.8585 44.9755 73.8427 44.9758C72.3227 44.9728 70.8578 45.5443 69.7413 46.5758L55.296 59.9091C54.5582 60.5945 53.5883 60.9755 52.5813 60.9758H32.324C30.8512 60.9758 29.6573 59.782 29.6573 58.3091C29.6573 56.8363 30.8512 55.6425 32.324 55.6425H46.3427C49.2882 55.6425 51.676 53.2546 51.676 50.3091C51.676 47.3636 49.2882 44.9758 46.3427 44.9758H24.588C21.339 44.9748 18.1555 45.8883 15.4013 47.6118L10.6667 50.5758V48.9758H0V80.9758H10.6667V78.3091H38.7773C39.6598 78.3091 40.541 78.2418 41.4133 78.1078L52.36 76.4238C56.0058 75.8706 59.3778 74.162 61.98 71.5491L78.228 55.2985C79.3662 54.1671 80.0043 52.6273 80 51.0225C79.9827 47.6653 77.247 44.958 73.89 44.9753ZM8 78.3091H2.66667V51.6425H8V78.3091ZM76.3413 53.4158L76.3427 53.4131L60.0947 69.6638C57.8927 71.8745 55.0395 73.3205 51.9547 73.7891L41.008 75.4731C40.2698 75.586 39.5242 75.6426 38.7773 75.6425H10.6667V53.7145L16.816 49.8718C19.1462 48.4143 21.8395 47.6416 24.588 47.6425H46.3427C47.8155 47.6425 49.0093 48.8363 49.0093 50.3091C49.0093 51.782 47.8155 52.9758 46.3427 52.9758H32.324C29.3785 52.9758 26.9907 55.3636 26.9907 58.3091C26.9907 61.2546 29.3785 63.6425 32.324 63.6425H52.5813C54.2578 63.6443 55.8732 63.0128 57.104 61.8745L71.5507 48.5411C72.2062 47.9456 73.0653 47.625 73.9507 47.6451C75.8173 47.6445 77.3313 49.1571 77.332 51.0238C77.3323 51.921 76.9758 52.7815 76.3413 53.4158Z" fill="#F48A1F"/>
<path d="M59.7333 14.8431C59.4815 14.5074 59.0863 14.3098 58.6666 14.3098H46.236L41.2387 1.81511C40.9652 1.13144 40.1893 0.798775 39.5055 1.07227C39.1667 1.20777 38.8982 1.47627 38.7627 1.81511L33.764 14.3098H21.3333C20.597 14.3098 20 14.9068 20 15.6431C20 16.0628 20.1977 16.4579 20.5333 16.7098L30.4093 24.1164L25.4133 37.8498C25.1617 38.5418 25.5187 39.3068 26.2107 39.5584C26.6475 39.7173 27.1355 39.6371 27.4987 39.3471L39.9533 29.3818L51.1133 39.3004C51.664 39.7894 52.5067 39.7394 52.9957 39.1888C53.2945 38.8523 53.4033 38.3879 53.2853 37.9538L49.5253 24.1671L59.4666 16.7098C60.0558 16.2679 60.1751 15.4321 59.7333 14.8431ZM47.2 22.5764C46.7625 22.9044 46.5697 23.4663 46.7133 23.9938L49.5333 34.3338L40.8867 26.6471C40.4013 26.2153 39.6755 26.1963 39.168 26.6018L29.544 34.3004L33.2547 24.0991C33.4552 23.5468 33.2705 22.9284 32.8 22.5764L25.3333 16.9764H34.6667C35.2123 16.9766 35.703 16.6444 35.9053 16.1378L40 5.89911L44.0947 16.1378C44.297 16.6444 44.7878 16.9766 45.3333 16.9764H54.6667L47.2 22.5764Z" fill="#F48A1F"/>
<path d="M26.2766 4.03383L24.391 5.91943L29.7244 11.2529L31.61 9.36725L26.2766 4.03383Z" fill="#F48A1F"/>
<path d="M53.7238 4.03224L48.3904 9.36566L50.276 11.2513L55.6094 5.91784L53.7238 4.03224Z" fill="#F48A1F"/>
<path d="M25.3334 24.9758H17.3334V27.6425H25.3334V24.9758Z" fill="#F48A1F"/>
<path d="M62.6666 24.9758H54.6666V27.6425H62.6666V24.9758Z" fill="#F48A1F"/>
<path d="M41.3333 32.9758H38.6666V40.9758H41.3333V32.9758Z" fill="#F48A1F"/>
</svg>
