<svg width="67" height="80" viewBox="0 0 67 80" fill="none" xmlns="http://www.w3.org/2000/svg">
<path d="M65.9005 69.4833L57.5256 58.6881C60.2458 57.8742 62.6019 56.1392 64.1655 53.7831C66.1361 50.3775 65.2579 46.2008 64.3797 42.174C63.8657 40.0964 63.5444 37.9973 63.4373 35.8554C63.5444 33.7135 63.8442 31.6145 64.3797 29.5368C65.2365 25.51 66.1361 21.3333 64.1655 17.9277C62.1093 14.3936 57.9968 13.087 54.0129 11.8233C52.0209 11.2664 50.1147 10.5167 48.2726 9.5743C46.6234 8.50335 45.0812 7.26104 43.6889 5.84739C40.7331 3.10576 37.3703 0 33.108 0C28.8456 0 25.4828 3.10576 22.527 5.84739C21.1347 7.23962 19.5925 8.50335 17.9433 9.5743C16.1227 10.5167 14.195 11.2664 12.203 11.8233C8.21907 13.087 4.10662 14.3936 2.05039 17.9277C0.0798411 21.3333 0.95802 25.51 1.8362 29.5368C2.35026 31.6145 2.67155 33.7349 2.77864 35.8554C2.67155 37.9973 2.37168 40.0964 1.8362 42.174C0.979439 46.2008 0.0798411 50.3775 2.05039 53.7831C3.61398 56.1392 5.97007 57.8956 8.69028 58.6881L0.294042 69.4833C-0.177177 70.083 -0.0700868 70.9612 0.529645 71.411C0.808093 71.6252 1.19362 71.7323 1.55774 71.6894L11.4105 70.4685L13.8523 78.9933C14.0022 79.4859 14.4092 79.8715 14.9232 79.9786C15.0089 80 15.0946 80 15.1803 80C15.6086 80 16.0156 79.8072 16.2726 79.4645L25.0758 68.1339C27.2391 70.2329 30.0879 71.5181 33.108 71.7108C36.128 71.4967 38.9768 70.2329 41.1401 68.1339L49.9433 79.4645C50.2003 79.8072 50.6073 80 51.0357 80C51.1213 80 51.207 80 51.2927 79.9786C51.8068 79.8715 52.2137 79.5074 52.3636 78.9933L54.8054 70.4685L64.6582 71.6894C65.4078 71.7751 66.0932 71.2396 66.2003 70.49C66.2432 70.1258 66.1361 69.7617 65.9005 69.4833ZM15.7586 75.6091L13.7452 68.5622C13.5524 67.9197 12.9312 67.4913 12.2458 67.577L4.53499 68.5408L11.4533 59.6519L12.2244 59.8876C14.195 60.423 16.1227 61.1727 17.9433 62.1365C19.5925 63.2075 21.1347 64.4498 22.527 65.8635L22.9982 66.2918L15.7586 75.6091ZM33.108 68.9478C29.9165 68.9478 27.2391 66.4632 24.4118 63.8286C22.8697 62.2865 21.1561 60.9157 19.3355 59.7376C17.3436 58.6881 15.2231 57.8527 13.0598 57.253C9.41853 56.0964 5.97008 55.004 4.47075 52.3909C3.03567 49.9063 3.7639 46.415 4.5564 42.7309C5.13472 40.4819 5.45602 38.1687 5.5417 35.834C5.45602 33.4993 5.1133 31.2075 4.5564 28.9371C3.7639 25.253 3.01426 21.7831 4.47075 19.2771C5.9915 16.664 9.41853 15.5716 13.0598 14.415C15.2231 13.8153 17.3436 12.9799 19.3355 11.9304C21.1776 10.7523 22.8697 9.38153 24.4118 7.83936C27.2606 5.20482 29.9379 2.72021 33.108 2.72021C36.2994 2.72021 38.9768 5.20482 41.8041 7.83936C43.3462 9.38153 45.0598 10.7523 46.8804 11.9304C48.8724 12.9799 50.9928 13.8153 53.1561 14.415C56.7974 15.5716 60.2458 16.664 61.7452 19.2771C63.1802 21.7617 62.452 25.253 61.6595 28.9371C61.0812 31.1861 60.7599 33.4993 60.6742 35.834C60.7599 38.1687 61.1026 40.4605 61.6595 42.7309C62.452 46.415 63.2017 49.8849 61.7452 52.3909C60.2244 55.004 56.7974 56.0964 53.1561 57.253C50.9928 57.8527 48.8724 58.6881 46.8804 59.7376C45.0384 60.9157 43.3462 62.2865 41.8041 63.8286C38.9768 66.4632 36.2994 68.9478 33.108 68.9478ZM53.9701 67.577C53.3061 67.4913 52.6635 67.9197 52.4707 68.5622L50.4574 75.6091L43.2177 66.2918L43.6889 65.8635C45.0812 64.4712 46.6234 63.2075 48.2726 62.1365C50.0932 61.1941 52.0209 60.4444 54.0129 59.8876L54.784 59.6519L61.7023 68.5408L53.9701 67.577Z" fill="#F48A1F"/>
<path d="M33.108 11.0308C19.3998 11.0308 8.28334 22.1472 8.28334 35.8554C8.28334 49.5636 19.3998 60.6586 33.108 60.6586C46.8162 60.6586 57.9326 49.5421 57.9326 35.834C57.9112 22.1472 46.8162 11.0522 33.108 11.0308ZM33.108 57.917C20.9206 57.917 11.0464 48.0428 11.0464 35.8554C11.0464 23.668 20.9206 13.7938 33.108 13.7938C45.2954 13.7938 55.1696 23.668 55.1696 35.8554C55.1481 48.0214 45.2954 57.8956 33.108 57.917Z" fill="#F48A1F"/>
<path d="M49.0223 30.0937C48.5082 29.3869 47.6729 28.9585 46.7947 28.9585H38.3556L35.7425 20.9264C35.2713 19.4699 33.7077 18.6988 32.2512 19.17C31.4159 19.4485 30.7733 20.091 30.4949 20.9264L27.8817 28.9585H19.4426C17.9219 28.9585 16.6796 30.2008 16.6796 31.7216C16.6796 32.5997 17.108 33.4351 17.8148 33.9491L24.6474 38.9184L22.0343 46.9505C21.5631 48.407 22.3556 49.9491 23.8121 50.4204C24.6474 50.6988 25.5685 50.5489 26.2967 50.0348L33.1294 45.0656L39.962 50.0348C40.9259 50.7416 42.2325 50.7416 43.1963 50.0348C44.1816 49.3494 44.5886 48.0857 44.203 46.9505L41.5899 38.9184L48.4226 33.9491C49.6434 33.0495 49.9219 31.3146 49.0223 30.0937ZM39.1481 37.2691C38.6555 37.6118 38.4627 38.2329 38.6555 38.8113L41.5685 47.8072L33.9219 42.2597C33.4293 41.917 32.7867 41.917 32.294 42.2597L24.6474 47.8072L27.5604 38.8113C27.7532 38.2329 27.539 37.6118 27.0678 37.2691L19.4212 31.7216H28.867C29.4667 31.7216 30.0022 31.336 30.1736 30.7791L33.0865 21.7831L35.9995 30.7791C36.1923 31.3574 36.7063 31.7216 37.3061 31.7216H46.7519L39.1481 37.2691Z" fill="#F48A1F"/>
</svg>
