<svg width="80" height="80" viewBox="0 0 80 80" fill="none" xmlns="http://www.w3.org/2000/svg">
<path d="M5.30528 79.9533C5.30528 73.6197 5.30528 67.2627 5.30528 60.929C5.30528 56.6521 6.73094 54.3617 10.6106 52.4219C9.27841 50.225 8.92784 47.8878 9.72247 45.4338C10.2834 43.7277 11.3351 42.3722 12.8308 41.3672C15.8691 39.3339 19.7721 39.591 22.5767 42.0216C25.4747 44.5457 25.9889 48.1917 24.0023 52.3751C24.9138 52.9594 25.8253 53.5203 26.8303 54.1514C28.1858 52.118 30.0321 50.5755 32.5562 49.7809C30.7566 47.2802 30.149 44.5691 30.9202 41.6243C31.4578 39.5443 32.6263 37.8382 34.3558 36.5528C37.8381 33.9352 42.676 34.1221 45.9714 36.88C48.9629 39.4041 50.856 44.6392 47.3503 49.7575C49.7575 50.5522 51.6272 52.0246 52.9828 54.128C53.941 53.5203 54.8758 52.936 55.8107 52.3518C53.1931 47.771 55.1797 43.5875 57.6804 41.6711C60.5784 39.4274 64.7385 39.4508 67.5898 41.7646C70.1607 43.8446 71.8668 47.958 69.2726 52.4219C69.4128 52.492 69.5296 52.5621 69.6699 52.6322C72.8717 54.1513 74.5311 56.6988 74.5545 60.2279C74.6012 66.468 74.5545 72.7082 74.5545 78.9483C74.5545 79.2755 74.5545 79.6261 74.5545 79.9533C73.6664 79.9533 72.7783 79.9533 71.8902 79.9533C71.8902 79.6261 71.8668 79.2755 71.8668 78.9483C71.8668 72.7082 71.8668 66.468 71.8668 60.2279C71.8668 57.4 70.0438 55.2264 67.3795 54.7824C67.1692 54.759 66.8887 54.7356 66.7251 54.8525C65.9071 55.3667 65.1358 55.9042 64.3178 56.4651C64.9722 57.8206 65.65 59.0827 66.2109 60.3915C66.4213 60.8589 66.5147 61.4666 66.4213 61.9574C65.6266 65.7669 64.7619 69.5764 63.9205 73.3626C63.7569 74.0871 63.383 74.6012 62.5884 74.648C61.9106 74.6947 61.3964 74.2039 61.1861 73.3392C60.3447 69.5998 59.48 65.837 58.7087 62.0742C58.5919 61.5133 58.7321 60.8355 58.9424 60.298C59.5034 58.9892 60.2045 57.7505 60.8589 56.4417C60.0409 55.8808 59.2696 55.3433 58.475 54.8525C58.3114 54.759 58.0777 54.7123 57.8907 54.7356C56.5819 54.9226 55.4367 55.4368 54.5954 56.4885C54.385 56.7456 54.2915 57.1896 54.3149 57.5402C54.3383 58.4049 54.5486 59.2463 54.5486 60.0877C54.572 66.7251 54.572 73.3626 54.572 79.9766C53.6839 79.9766 52.7958 79.9766 51.9077 79.9766C51.9077 79.6728 51.8843 79.3456 51.8843 79.0418C51.8843 72.6381 51.8843 66.2343 51.8843 59.8539C51.8843 55.8575 49.2901 52.7724 45.4572 52.118C45.1534 52.0713 44.7561 52.118 44.5457 52.305C43.5408 53.1464 42.6059 54.0345 41.6009 54.9226C42.6994 56.7222 43.7511 58.5218 44.8262 60.298C45.1767 60.8589 45.2702 61.4198 45.0833 62.0742C43.7978 66.7017 42.5592 71.3526 41.2737 75.9801C41.0167 76.8916 40.5726 77.3123 39.8948 77.3357C39.2171 77.3357 38.7496 76.915 38.5159 76.0035C37.2539 71.3994 36.0152 66.7719 34.7298 62.1677C34.5428 61.4666 34.6129 60.8823 34.9868 60.2513C36.0619 58.5218 37.1136 56.7456 38.1654 54.946C37.5343 54.3851 36.8566 53.9176 36.3658 53.2866C35.2439 51.861 33.9585 51.9311 32.5095 52.6556C32.3225 52.7491 32.1355 52.8192 31.9486 52.9127C29.2375 54.4318 27.882 56.7689 27.882 59.8773C27.8586 66.5849 27.8586 73.2924 27.8586 80C26.9705 80 26.0824 80 25.1943 80C25.1943 73.3859 25.1943 66.7952 25.2176 60.1811C25.2176 59.5034 25.1709 58.8022 25.3812 58.1712C25.8019 56.9325 25.1709 56.2314 24.236 55.6939C23.5583 55.2965 22.787 55.0395 22.0158 54.7824C21.8288 54.7123 21.525 54.759 21.3614 54.8525C20.5434 55.3667 19.7721 55.9042 18.9541 56.4417C19.6319 57.8206 20.3097 59.1061 20.8939 60.4149C21.0809 60.8589 21.1978 61.4432 21.0809 61.9106C20.2629 65.7435 19.3982 69.5764 18.5568 73.3859C18.3698 74.2039 17.8557 74.648 17.2013 74.648C16.5235 74.648 16.0327 74.1806 15.8691 73.3626C15.0278 69.553 14.163 65.7669 13.3684 61.9574C13.2749 61.4666 13.3684 60.8589 13.5787 60.4149C14.163 59.0827 14.8641 57.8206 15.5419 56.4885C14.9576 56.0912 14.35 55.764 13.8592 55.3199C13.1113 54.6421 12.3401 54.7123 11.4753 55.0161C9.27841 55.7873 7.92288 57.7973 7.89951 60.3447C7.87613 66.8887 7.87613 73.456 7.87613 80C7.0815 79.9533 6.19339 79.9533 5.30528 79.9533ZM39.9649 52.7958C41.5776 51.3935 43.2136 50.0614 44.7093 48.6123C47.3503 46.0181 47.2334 41.7412 44.5691 39.1703C41.9515 36.6462 37.7213 36.7397 35.1738 39.3807C32.603 42.0216 32.6965 46.2986 35.4075 48.8227C36.8565 50.1549 38.3991 51.4403 39.9649 52.7958ZM17.3181 54.3617C18.4166 53.6138 19.515 52.936 20.52 52.1648C22.3663 50.7859 23.0908 48.402 22.3663 46.2518C21.6185 44.0549 19.5852 42.6059 17.248 42.6293C15.0044 42.6527 12.9711 44.1484 12.2466 46.322C11.5454 48.4955 12.2699 50.8326 14.163 52.2115C15.168 52.9594 16.2197 53.6372 17.3181 54.3617ZM67.917 48.6123C67.917 45.4572 66.1642 43.3071 63.8037 42.7929C61.3029 42.2554 58.8256 43.4473 57.7739 45.7143C56.7455 47.9346 57.3766 50.669 59.293 52.0947C60.2512 52.7958 61.2562 53.4502 62.2612 54.0812C62.4481 54.1981 62.7987 54.1981 62.9857 54.0812C63.8738 53.5437 64.7385 52.9594 65.5799 52.3518C67.099 51.2767 67.8937 49.7809 67.917 48.6123ZM39.9416 57.2364C39.1469 58.5685 38.3991 59.7605 37.7213 60.9758C37.5577 61.303 37.4876 61.7704 37.5811 62.121C38.2588 64.7619 38.9833 67.3795 39.7079 70.0205C39.7546 70.2074 39.8481 70.371 39.9883 70.7216C40.8297 67.6132 41.6477 64.6918 42.4189 61.7704C42.4657 61.6068 42.4189 61.3965 42.3254 61.2562C41.5776 59.9474 40.8063 58.662 39.9416 57.2364ZM62.6585 59.0593C61.7236 60.4149 61.0225 61.7003 61.747 63.2895C61.8171 63.4298 61.8171 63.5934 61.8405 63.757C62.0742 64.7619 62.3079 65.7435 62.5182 66.7485C63.0558 65.0658 63.4531 63.383 63.8037 61.6769C63.827 61.5133 63.7569 61.3263 63.6868 61.1627C63.3596 60.485 63.0324 59.8072 62.6585 59.0593ZM17.3883 59.0593C16.2664 60.485 15.8691 61.9106 16.5001 63.5466C16.804 64.3179 16.8741 65.1592 17.0377 65.9772C17.0844 66.2343 17.1779 66.468 17.248 66.7251C17.7622 65.0424 18.1361 63.3596 18.5101 61.7003C18.5334 61.5601 18.5101 61.3965 18.44 61.2562C18.1128 60.5317 17.7622 59.8306 17.3883 59.0593Z" fill="#F48A1F"/>
<path d="M79.9065 48.4254C79.4858 49.1265 78.8782 49.3602 78.0835 49.3368C76.4943 49.2901 74.9284 49.3368 73.2924 49.3368C73.2924 48.4487 73.2924 47.6307 73.2924 46.6959C74.5779 46.6959 75.8633 46.6959 77.1954 46.6959C77.1954 31.9953 77.1954 17.3883 77.1954 2.73444C52.3751 2.73444 27.5781 2.73444 2.71107 2.73444C2.71107 17.3415 2.71107 31.9252 2.71107 46.6258C3.9965 46.6258 5.28192 46.6258 6.61409 46.6258C6.61409 47.5372 6.61409 48.3552 6.61409 49.22C6.47386 49.2434 6.33362 49.3135 6.19339 49.3135C4.65088 49.3135 3.13176 49.3368 1.58925 49.3135C0.490802 49.3135 0 48.7993 0 47.7242C0 32.3459 0 16.9909 0 1.61262C0 0.490797 0.49079 0.0233714 1.63598 0.0233714C7.85275 0.0233714 14.0695 0.0233714 20.2863 0.0233714C39.5443 0.0233714 58.7788 0.0233713 78.0368 0C78.8782 0 79.5092 0.186971 79.9065 0.958224C79.9065 16.7806 79.9065 32.603 79.9065 48.4254Z" fill="#F48A1F"/>
<path d="M30.4061 33.047C30.7333 31.0371 30.967 28.8636 31.4812 26.7368C31.9018 24.9372 31.7149 23.5816 30.1724 22.3196C28.6299 21.0575 27.3444 19.4917 25.9422 18.066C25.4747 17.5986 25.1242 17.1078 25.3813 16.4066C25.6383 15.7055 26.2226 15.5653 26.8536 15.4718C29.3544 15.0979 31.8317 14.7473 34.3325 14.3266C34.6363 14.2799 35.0336 13.976 35.1738 13.6722C36.3424 11.2883 37.4408 8.88108 38.5627 6.47384C38.8431 5.84281 39.2171 5.32864 39.9883 5.35202C40.7128 5.37539 41.0634 5.86618 41.3439 6.47384C42.4423 8.85771 43.5875 11.2182 44.6626 13.6021C44.8963 14.0929 45.2001 14.2799 45.7143 14.35C48.215 14.7005 50.6924 15.0979 53.1931 15.4718C53.8241 15.5653 54.3383 15.799 54.5487 16.4768C54.759 17.1078 54.4318 17.5752 54.0345 17.9959C52.1881 19.8656 50.3652 21.7587 48.5189 23.6284C48.1683 23.9789 48.0514 24.3061 48.1449 24.7969C48.6123 27.4379 49.033 30.0789 49.4537 32.7198C49.5472 33.3508 49.5472 33.9819 48.9395 34.4026C48.3319 34.8232 47.771 34.6129 47.1867 34.2857C45.0132 33.0704 42.8163 31.8785 40.6427 30.6398C40.1286 30.3359 39.7312 30.3593 39.2404 30.6631C36.9968 31.9252 34.7531 33.1872 32.4861 34.4026C31.411 35.0102 30.3827 34.4026 30.4061 33.047ZM39.9416 9.83931C38.9834 11.8726 38.0952 13.7189 37.2539 15.5886C36.9033 16.3599 36.3891 16.7572 35.5478 16.8507C34.3558 16.9909 33.1873 17.1779 31.9953 17.3649C31.1773 17.4817 30.3594 17.6453 29.4011 17.7856C31.0137 19.4215 32.4861 20.9641 33.9819 22.4832C34.4727 22.9974 34.683 23.5115 34.5428 24.236C34.3325 25.241 34.1922 26.2927 34.0286 27.2977C33.8417 28.4195 33.6781 29.5179 33.4911 30.78C34.9869 29.9386 36.3424 29.1908 37.7213 28.4429C40.222 27.0873 39.6378 27.0406 42.2086 28.4429C43.5641 29.1908 44.9197 29.9386 46.3921 30.7566C46.3453 30.3593 46.3219 30.1022 46.2752 29.8451C45.9947 28.0456 45.761 26.246 45.3871 24.4697C45.1768 23.4882 45.4806 22.8571 46.1583 22.1794C47.6074 20.7537 48.9863 19.2813 50.4353 17.7856C50.2483 17.7154 50.1315 17.6453 50.0146 17.622C48.1916 17.3415 46.3687 17.0377 44.5457 16.804C43.5875 16.6871 43.0032 16.2898 42.6059 15.4017C41.7879 13.6488 40.8998 11.8492 39.9416 9.83931Z" fill="#F48A1F"/>
</svg>
